<mxfile host="Electron" agent="Mozilla/5.0 (Windows NT 10.0; Win64; x64) AppleWebKit/537.36 (KHTML, like Gecko) draw.io/26.1.1 Chrome/132.0.6834.210 Electron/34.3.3 Safari/537.36" version="26.1.1">
  <diagram id="C5RBs43oDa-KdzZeNtuy" name="Page-1">
    <mxGraphModel dx="2062" dy="1900" grid="1" gridSize="10" guides="1" tooltips="1" connect="1" arrows="1" fold="1" page="1" pageScale="1" pageWidth="827" pageHeight="1169" background="none" math="0" shadow="0" adaptiveColors="auto">
      <root>
        <mxCell id="WIyWlLk6GJQsqaUBKTNV-0" />
        <mxCell id="WIyWlLk6GJQsqaUBKTNV-1" parent="WIyWlLk6GJQsqaUBKTNV-0" />
        <mxCell id="SyEZ5O2ocyd8BsSJKjrY-57" style="edgeStyle=orthogonalEdgeStyle;rounded=0;orthogonalLoop=1;jettySize=auto;html=1;entryX=0.75;entryY=0;entryDx=0;entryDy=0;" parent="WIyWlLk6GJQsqaUBKTNV-1" source="zkfFHV4jXpPFQw0GAbJ--0" target="eayp4S9XgS_MOtDc0waJ-4" edge="1">
          <mxGeometry relative="1" as="geometry">
            <Array as="points">
              <mxPoint x="838" y="-405" />
            </Array>
          </mxGeometry>
        </mxCell>
        <mxCell id="zkfFHV4jXpPFQw0GAbJ--0" value="Empresa" style="swimlane;fontStyle=1;align=center;verticalAlign=top;childLayout=stackLayout;horizontal=1;startSize=26;horizontalStack=0;resizeParent=1;resizeLast=0;collapsible=1;marginBottom=0;rounded=0;shadow=0;strokeWidth=1;" parent="WIyWlLk6GJQsqaUBKTNV-1" vertex="1">
          <mxGeometry x="430" y="-590" width="260" height="370" as="geometry">
            <mxRectangle x="230" y="140" width="160" height="26" as="alternateBounds" />
          </mxGeometry>
        </mxCell>
        <mxCell id="zWdOY6IOPtEDMCCfpQSh-7" value="-nombre: String" style="text;align=left;verticalAlign=top;spacingLeft=4;spacingRight=4;overflow=hidden;rotatable=0;points=[[0,0.5],[1,0.5]];portConstraint=eastwest;" parent="zkfFHV4jXpPFQw0GAbJ--0" vertex="1">
          <mxGeometry y="26" width="260" height="26" as="geometry" />
        </mxCell>
        <mxCell id="zWdOY6IOPtEDMCCfpQSh-8" value="-cuit: String" style="text;align=left;verticalAlign=top;spacingLeft=4;spacingRight=4;overflow=hidden;rotatable=0;points=[[0,0.5],[1,0.5]];portConstraint=eastwest;" parent="zkfFHV4jXpPFQw0GAbJ--0" vertex="1">
          <mxGeometry y="52" width="260" height="26" as="geometry" />
        </mxCell>
        <mxCell id="SyEZ5O2ocyd8BsSJKjrY-0" value="-empleados: List&lt;Empleado&gt;" style="text;align=left;verticalAlign=top;spacingLeft=4;spacingRight=4;overflow=hidden;rotatable=0;points=[[0,0.5],[1,0.5]];portConstraint=eastwest;" parent="zkfFHV4jXpPFQw0GAbJ--0" vertex="1">
          <mxGeometry y="78" width="260" height="26" as="geometry" />
        </mxCell>
        <mxCell id="SyEZ5O2ocyd8BsSJKjrY-1" value="-recibos: List&lt;ReciboHaberes&gt;" style="text;align=left;verticalAlign=top;spacingLeft=4;spacingRight=4;overflow=hidden;rotatable=0;points=[[0,0.5],[1,0.5]];portConstraint=eastwest;" parent="zkfFHV4jXpPFQw0GAbJ--0" vertex="1">
          <mxGeometry y="104" width="260" height="26" as="geometry" />
        </mxCell>
        <mxCell id="zkfFHV4jXpPFQw0GAbJ--4" value="" style="line;html=1;strokeWidth=1;align=left;verticalAlign=middle;spacingTop=-1;spacingLeft=3;spacingRight=3;rotatable=0;labelPosition=right;points=[];portConstraint=eastwest;" parent="zkfFHV4jXpPFQw0GAbJ--0" vertex="1">
          <mxGeometry y="130" width="260" height="36" as="geometry" />
        </mxCell>
        <mxCell id="eayp4S9XgS_MOtDc0waJ-3" value="&lt;u&gt;+ new(String, String)&lt;/u&gt;" style="text;strokeColor=none;fillColor=none;align=left;verticalAlign=top;spacingLeft=4;spacingRight=4;overflow=hidden;rotatable=0;points=[[0,0.5],[1,0.5]];portConstraint=eastwest;whiteSpace=wrap;html=1;" parent="zkfFHV4jXpPFQw0GAbJ--0" vertex="1">
          <mxGeometry y="166" width="260" height="34" as="geometry" />
        </mxCell>
        <mxCell id="SyEZ5O2ocyd8BsSJKjrY-3" value="+ agregarEmpleado(Empleado): void" style="text;strokeColor=none;fillColor=none;align=left;verticalAlign=top;spacingLeft=4;spacingRight=4;overflow=hidden;rotatable=0;points=[[0,0.5],[1,0.5]];portConstraint=eastwest;whiteSpace=wrap;html=1;" parent="zkfFHV4jXpPFQw0GAbJ--0" vertex="1">
          <mxGeometry y="200" width="260" height="34" as="geometry" />
        </mxCell>
        <mxCell id="SyEZ5O2ocyd8BsSJKjrY-4" value="+ calcularTotalSueldosNetos(): float" style="text;strokeColor=none;fillColor=none;align=left;verticalAlign=top;spacingLeft=4;spacingRight=4;overflow=hidden;rotatable=0;points=[[0,0.5],[1,0.5]];portConstraint=eastwest;whiteSpace=wrap;html=1;" parent="zkfFHV4jXpPFQw0GAbJ--0" vertex="1">
          <mxGeometry y="234" width="260" height="34" as="geometry" />
        </mxCell>
        <mxCell id="SyEZ5O2ocyd8BsSJKjrY-6" value="+ calcularTotalSueldosBrutos(): float" style="text;strokeColor=none;fillColor=none;align=left;verticalAlign=top;spacingLeft=4;spacingRight=4;overflow=hidden;rotatable=0;points=[[0,0.5],[1,0.5]];portConstraint=eastwest;whiteSpace=wrap;html=1;" parent="zkfFHV4jXpPFQw0GAbJ--0" vertex="1">
          <mxGeometry y="268" width="260" height="34" as="geometry" />
        </mxCell>
        <mxCell id="SyEZ5O2ocyd8BsSJKjrY-7" value="+ calcularTotalSueldosRetenciones(): float" style="text;strokeColor=none;fillColor=none;align=left;verticalAlign=top;spacingLeft=4;spacingRight=4;overflow=hidden;rotatable=0;points=[[0,0.5],[1,0.5]];portConstraint=eastwest;whiteSpace=wrap;html=1;" parent="zkfFHV4jXpPFQw0GAbJ--0" vertex="1">
          <mxGeometry y="302" width="260" height="34" as="geometry" />
        </mxCell>
        <mxCell id="SyEZ5O2ocyd8BsSJKjrY-8" value="+ liquidarSueldos(): void" style="text;strokeColor=none;fillColor=none;align=left;verticalAlign=top;spacingLeft=4;spacingRight=4;overflow=hidden;rotatable=0;points=[[0,0.5],[1,0.5]];portConstraint=eastwest;whiteSpace=wrap;html=1;" parent="zkfFHV4jXpPFQw0GAbJ--0" vertex="1">
          <mxGeometry y="336" width="260" height="34" as="geometry" />
        </mxCell>
        <mxCell id="SyEZ5O2ocyd8BsSJKjrY-55" style="edgeStyle=orthogonalEdgeStyle;rounded=0;orthogonalLoop=1;jettySize=auto;html=1;entryX=0;entryY=0.5;entryDx=0;entryDy=0;endArrow=block;endFill=0;dashed=1;" parent="WIyWlLk6GJQsqaUBKTNV-1" source="zkfFHV4jXpPFQw0GAbJ--17" target="SyEZ5O2ocyd8BsSJKjrY-51" edge="1">
          <mxGeometry relative="1" as="geometry" />
        </mxCell>
        <mxCell id="zkfFHV4jXpPFQw0GAbJ--17" value="Empleado" style="swimlane;fontStyle=3;align=center;verticalAlign=top;childLayout=stackLayout;horizontal=1;startSize=26;horizontalStack=0;resizeParent=1;resizeLast=0;collapsible=1;marginBottom=0;rounded=0;shadow=0;strokeWidth=1;" parent="WIyWlLk6GJQsqaUBKTNV-1" vertex="1">
          <mxGeometry x="320" y="70" width="220" height="310" as="geometry">
            <mxRectangle x="550" y="140" width="160" height="26" as="alternateBounds" />
          </mxGeometry>
        </mxCell>
        <mxCell id="zkfFHV4jXpPFQw0GAbJ--1" value="-nombre: String" style="text;align=left;verticalAlign=top;spacingLeft=4;spacingRight=4;overflow=hidden;rotatable=0;points=[[0,0.5],[1,0.5]];portConstraint=eastwest;" parent="zkfFHV4jXpPFQw0GAbJ--17" vertex="1">
          <mxGeometry y="26" width="220" height="26" as="geometry" />
        </mxCell>
        <mxCell id="zkfFHV4jXpPFQw0GAbJ--2" value="-direccion: String" style="text;align=left;verticalAlign=top;spacingLeft=4;spacingRight=4;overflow=hidden;rotatable=0;points=[[0,0.5],[1,0.5]];portConstraint=eastwest;rounded=0;shadow=0;html=0;" parent="zkfFHV4jXpPFQw0GAbJ--17" vertex="1">
          <mxGeometry y="52" width="220" height="26" as="geometry" />
        </mxCell>
        <mxCell id="zkfFHV4jXpPFQw0GAbJ--3" value="-estadoCivil: String" style="text;align=left;verticalAlign=top;spacingLeft=4;spacingRight=4;overflow=hidden;rotatable=0;points=[[0,0.5],[1,0.5]];portConstraint=eastwest;rounded=0;shadow=0;html=0;" parent="zkfFHV4jXpPFQw0GAbJ--17" vertex="1">
          <mxGeometry y="78" width="220" height="26" as="geometry" />
        </mxCell>
        <mxCell id="zWdOY6IOPtEDMCCfpQSh-1" value="-sueldoBasico: float" style="text;align=left;verticalAlign=top;spacingLeft=4;spacingRight=4;overflow=hidden;rotatable=0;points=[[0,0.5],[1,0.5]];portConstraint=eastwest;rounded=0;shadow=0;html=0;" parent="zkfFHV4jXpPFQw0GAbJ--17" vertex="1">
          <mxGeometry y="104" width="220" height="26" as="geometry" />
        </mxCell>
        <mxCell id="zWdOY6IOPtEDMCCfpQSh-2" value="-fechaDeNac: Date" style="text;align=left;verticalAlign=top;spacingLeft=4;spacingRight=4;overflow=hidden;rotatable=0;points=[[0,0.5],[1,0.5]];portConstraint=eastwest;rounded=0;shadow=0;html=0;" parent="zkfFHV4jXpPFQw0GAbJ--17" vertex="1">
          <mxGeometry y="130" width="220" height="26" as="geometry" />
        </mxCell>
        <mxCell id="zkfFHV4jXpPFQw0GAbJ--23" value="" style="line;html=1;strokeWidth=1;align=left;verticalAlign=middle;spacingTop=-1;spacingLeft=3;spacingRight=3;rotatable=0;labelPosition=right;points=[];portConstraint=eastwest;" parent="zkfFHV4jXpPFQw0GAbJ--17" vertex="1">
          <mxGeometry y="156" width="220" height="8" as="geometry" />
        </mxCell>
        <mxCell id="SyEZ5O2ocyd8BsSJKjrY-9" value="+new(String, String, String, Date, float)" style="text;align=left;verticalAlign=top;spacingLeft=4;spacingRight=4;overflow=hidden;rotatable=0;points=[[0,0.5],[1,0.5]];portConstraint=eastwest;fontStyle=4" parent="zkfFHV4jXpPFQw0GAbJ--17" vertex="1">
          <mxGeometry y="164" width="220" height="26" as="geometry" />
        </mxCell>
        <mxCell id="zkfFHV4jXpPFQw0GAbJ--25" value="+edad():Int" style="text;align=left;verticalAlign=top;spacingLeft=4;spacingRight=4;overflow=hidden;rotatable=0;points=[[0,0.5],[1,0.5]];portConstraint=eastwest;fontStyle=0" parent="zkfFHV4jXpPFQw0GAbJ--17" vertex="1">
          <mxGeometry y="190" width="220" height="26" as="geometry" />
        </mxCell>
        <mxCell id="eayp4S9XgS_MOtDc0waJ-0" value="+calcularSueldoBruto():float" style="text;align=left;verticalAlign=top;spacingLeft=4;spacingRight=4;overflow=hidden;rotatable=0;points=[[0,0.5],[1,0.5]];portConstraint=eastwest;fontStyle=0" parent="zkfFHV4jXpPFQw0GAbJ--17" vertex="1">
          <mxGeometry y="216" width="220" height="26" as="geometry" />
        </mxCell>
        <mxCell id="eayp4S9XgS_MOtDc0waJ-1" value="+calcularRetenciones():float " style="text;align=left;verticalAlign=top;spacingLeft=4;spacingRight=4;overflow=hidden;rotatable=0;points=[[0,0.5],[1,0.5]];portConstraint=eastwest;fontStyle=0" parent="zkfFHV4jXpPFQw0GAbJ--17" vertex="1">
          <mxGeometry y="242" width="220" height="26" as="geometry" />
        </mxCell>
        <mxCell id="eayp4S9XgS_MOtDc0waJ-2" value="+calcularSueldoNeto():float" style="text;align=left;verticalAlign=top;spacingLeft=4;spacingRight=4;overflow=hidden;rotatable=0;points=[[0,0.5],[1,0.5]];portConstraint=eastwest;fontStyle=0" parent="zkfFHV4jXpPFQw0GAbJ--17" vertex="1">
          <mxGeometry y="268" width="220" height="26" as="geometry" />
        </mxCell>
        <mxCell id="zWdOY6IOPtEDMCCfpQSh-3" value="EmpleadoPermanente" style="swimlane;fontStyle=1;align=center;verticalAlign=top;childLayout=stackLayout;horizontal=1;startSize=26;horizontalStack=0;resizeParent=1;resizeParentMax=0;resizeLast=0;collapsible=1;marginBottom=0;whiteSpace=wrap;html=1;" parent="WIyWlLk6GJQsqaUBKTNV-1" vertex="1">
          <mxGeometry x="-20" y="520" width="260" height="190" as="geometry" />
        </mxCell>
        <mxCell id="zWdOY6IOPtEDMCCfpQSh-4" value="- cantindadHijos: Int" style="text;strokeColor=none;fillColor=none;align=left;verticalAlign=top;spacingLeft=4;spacingRight=4;overflow=hidden;rotatable=0;points=[[0,0.5],[1,0.5]];portConstraint=eastwest;whiteSpace=wrap;html=1;" parent="zWdOY6IOPtEDMCCfpQSh-3" vertex="1">
          <mxGeometry y="26" width="260" height="26" as="geometry" />
        </mxCell>
        <mxCell id="zWdOY6IOPtEDMCCfpQSh-19" value="- antiguedad: Int" style="text;strokeColor=none;fillColor=none;align=left;verticalAlign=top;spacingLeft=4;spacingRight=4;overflow=hidden;rotatable=0;points=[[0,0.5],[1,0.5]];portConstraint=eastwest;whiteSpace=wrap;html=1;" parent="zWdOY6IOPtEDMCCfpQSh-3" vertex="1">
          <mxGeometry y="52" width="260" height="26" as="geometry" />
        </mxCell>
        <mxCell id="zWdOY6IOPtEDMCCfpQSh-5" value="" style="line;strokeWidth=1;fillColor=none;align=left;verticalAlign=middle;spacingTop=-1;spacingLeft=3;spacingRight=3;rotatable=0;labelPosition=right;points=[];portConstraint=eastwest;strokeColor=inherit;" parent="zWdOY6IOPtEDMCCfpQSh-3" vertex="1">
          <mxGeometry y="78" width="260" height="8" as="geometry" />
        </mxCell>
        <mxCell id="SyEZ5O2ocyd8BsSJKjrY-10" value="+new(String, String, String, Date, float, int, int)" style="text;align=left;verticalAlign=top;spacingLeft=4;spacingRight=4;overflow=hidden;rotatable=0;points=[[0,0.5],[1,0.5]];portConstraint=eastwest;fontStyle=4" parent="zWdOY6IOPtEDMCCfpQSh-3" vertex="1">
          <mxGeometry y="86" width="260" height="26" as="geometry" />
        </mxCell>
        <mxCell id="SyEZ5O2ocyd8BsSJKjrY-11" value="+calcularSueldoBruto():float" style="text;align=left;verticalAlign=top;spacingLeft=4;spacingRight=4;overflow=hidden;rotatable=0;points=[[0,0.5],[1,0.5]];portConstraint=eastwest;fontStyle=0" parent="zWdOY6IOPtEDMCCfpQSh-3" vertex="1">
          <mxGeometry y="112" width="260" height="26" as="geometry" />
        </mxCell>
        <mxCell id="SyEZ5O2ocyd8BsSJKjrY-12" value="+calcularRetenciones():float " style="text;align=left;verticalAlign=top;spacingLeft=4;spacingRight=4;overflow=hidden;rotatable=0;points=[[0,0.5],[1,0.5]];portConstraint=eastwest;fontStyle=0" parent="zWdOY6IOPtEDMCCfpQSh-3" vertex="1">
          <mxGeometry y="138" width="260" height="26" as="geometry" />
        </mxCell>
        <mxCell id="SyEZ5O2ocyd8BsSJKjrY-13" value="+calcularSalarioFamiliar():float " style="text;align=left;verticalAlign=top;spacingLeft=4;spacingRight=4;overflow=hidden;rotatable=0;points=[[0,0.5],[1,0.5]];portConstraint=eastwest;fontStyle=0" parent="zWdOY6IOPtEDMCCfpQSh-3" vertex="1">
          <mxGeometry y="164" width="260" height="26" as="geometry" />
        </mxCell>
        <mxCell id="zWdOY6IOPtEDMCCfpQSh-12" style="edgeStyle=orthogonalEdgeStyle;rounded=1;orthogonalLoop=1;jettySize=auto;html=1;exitX=0;exitY=0.5;exitDx=0;exitDy=0;entryX=0;entryY=0.5;entryDx=0;entryDy=0;curved=0;endArrow=block;endFill=1;" parent="WIyWlLk6GJQsqaUBKTNV-1" source="SyEZ5O2ocyd8BsSJKjrY-0" target="zkfFHV4jXpPFQw0GAbJ--3" edge="1">
          <mxGeometry relative="1" as="geometry" />
        </mxCell>
        <mxCell id="zWdOY6IOPtEDMCCfpQSh-13" value="1" style="edgeLabel;html=1;align=center;verticalAlign=middle;resizable=0;points=[];" parent="zWdOY6IOPtEDMCCfpQSh-12" vertex="1" connectable="0">
          <mxGeometry x="-0.5821" y="3" relative="1" as="geometry">
            <mxPoint x="-18" y="-10" as="offset" />
          </mxGeometry>
        </mxCell>
        <mxCell id="zWdOY6IOPtEDMCCfpQSh-14" value="&lt;font style=&quot;font-size: 20px;&quot;&gt;*&lt;/font&gt;" style="edgeLabel;html=1;align=center;verticalAlign=middle;resizable=0;points=[];" parent="zWdOY6IOPtEDMCCfpQSh-12" vertex="1" connectable="0">
          <mxGeometry x="-0.5821" y="3" relative="1" as="geometry">
            <mxPoint x="-23" y="610" as="offset" />
          </mxGeometry>
        </mxCell>
        <mxCell id="SyEZ5O2ocyd8BsSJKjrY-58" value="1" style="edgeLabel;html=1;align=center;verticalAlign=middle;resizable=0;points=[];" parent="zWdOY6IOPtEDMCCfpQSh-12" vertex="1" connectable="0">
          <mxGeometry x="-0.5821" y="3" relative="1" as="geometry">
            <mxPoint x="407" y="40" as="offset" />
          </mxGeometry>
        </mxCell>
        <mxCell id="SyEZ5O2ocyd8BsSJKjrY-59" value="&lt;font style=&quot;font-size: 20px;&quot;&gt;*&lt;/font&gt;" style="edgeLabel;html=1;align=center;verticalAlign=middle;resizable=0;points=[];" parent="zWdOY6IOPtEDMCCfpQSh-12" vertex="1" connectable="0">
          <mxGeometry x="-0.5821" y="3" relative="1" as="geometry">
            <mxPoint x="547" y="450" as="offset" />
          </mxGeometry>
        </mxCell>
        <mxCell id="SyEZ5O2ocyd8BsSJKjrY-60" value="&lt;font style=&quot;font-size: 20px;&quot;&gt;*&lt;/font&gt;" style="edgeLabel;html=1;align=center;verticalAlign=middle;resizable=0;points=[];" parent="zWdOY6IOPtEDMCCfpQSh-12" vertex="1" connectable="0">
          <mxGeometry x="-0.5821" y="3" relative="1" as="geometry">
            <mxPoint x="357" y="600" as="offset" />
          </mxGeometry>
        </mxCell>
        <mxCell id="SyEZ5O2ocyd8BsSJKjrY-61" value="&lt;font style=&quot;font-size: 20px;&quot;&gt;*&lt;/font&gt;" style="edgeLabel;html=1;align=center;verticalAlign=middle;resizable=0;points=[];" parent="zWdOY6IOPtEDMCCfpQSh-12" vertex="1" connectable="0">
          <mxGeometry x="-0.5821" y="3" relative="1" as="geometry">
            <mxPoint x="577" y="860" as="offset" />
          </mxGeometry>
        </mxCell>
        <mxCell id="zWdOY6IOPtEDMCCfpQSh-15" value="EmpleadoTemporaria" style="swimlane;fontStyle=1;align=center;verticalAlign=top;childLayout=stackLayout;horizontal=1;startSize=30;horizontalStack=0;resizeParent=1;resizeParentMax=0;resizeLast=0;collapsible=1;marginBottom=0;whiteSpace=wrap;html=1;" parent="WIyWlLk6GJQsqaUBKTNV-1" vertex="1">
          <mxGeometry x="280" y="520" width="280" height="168" as="geometry" />
        </mxCell>
        <mxCell id="zWdOY6IOPtEDMCCfpQSh-16" value="-finDesignacion: Date" style="text;strokeColor=none;fillColor=none;align=left;verticalAlign=top;spacingLeft=4;spacingRight=4;overflow=hidden;rotatable=0;points=[[0,0.5],[1,0.5]];portConstraint=eastwest;whiteSpace=wrap;html=1;" parent="zWdOY6IOPtEDMCCfpQSh-15" vertex="1">
          <mxGeometry y="30" width="280" height="26" as="geometry" />
        </mxCell>
        <mxCell id="zWdOY6IOPtEDMCCfpQSh-20" value="-cantHorasExtras:Int" style="text;strokeColor=none;fillColor=none;align=left;verticalAlign=top;spacingLeft=4;spacingRight=4;overflow=hidden;rotatable=0;points=[[0,0.5],[1,0.5]];portConstraint=eastwest;whiteSpace=wrap;html=1;" parent="zWdOY6IOPtEDMCCfpQSh-15" vertex="1">
          <mxGeometry y="56" width="280" height="26" as="geometry" />
        </mxCell>
        <mxCell id="zWdOY6IOPtEDMCCfpQSh-17" value="" style="line;strokeWidth=1;fillColor=none;align=left;verticalAlign=middle;spacingTop=-1;spacingLeft=3;spacingRight=3;rotatable=0;labelPosition=right;points=[];portConstraint=eastwest;strokeColor=inherit;" parent="zWdOY6IOPtEDMCCfpQSh-15" vertex="1">
          <mxGeometry y="82" width="280" height="8" as="geometry" />
        </mxCell>
        <mxCell id="SyEZ5O2ocyd8BsSJKjrY-16" value="+new(String, String, String, Date, float, Date, int)" style="text;align=left;verticalAlign=top;spacingLeft=4;spacingRight=4;overflow=hidden;rotatable=0;points=[[0,0.5],[1,0.5]];portConstraint=eastwest;fontStyle=4" parent="zWdOY6IOPtEDMCCfpQSh-15" vertex="1">
          <mxGeometry y="90" width="280" height="26" as="geometry" />
        </mxCell>
        <mxCell id="SyEZ5O2ocyd8BsSJKjrY-14" value="+calcularSueldoBruto():float" style="text;align=left;verticalAlign=top;spacingLeft=4;spacingRight=4;overflow=hidden;rotatable=0;points=[[0,0.5],[1,0.5]];portConstraint=eastwest;fontStyle=0" parent="zWdOY6IOPtEDMCCfpQSh-15" vertex="1">
          <mxGeometry y="116" width="280" height="26" as="geometry" />
        </mxCell>
        <mxCell id="SyEZ5O2ocyd8BsSJKjrY-15" value="+calcularRetenciones():float " style="text;align=left;verticalAlign=top;spacingLeft=4;spacingRight=4;overflow=hidden;rotatable=0;points=[[0,0.5],[1,0.5]];portConstraint=eastwest;fontStyle=0" parent="zWdOY6IOPtEDMCCfpQSh-15" vertex="1">
          <mxGeometry y="142" width="280" height="26" as="geometry" />
        </mxCell>
        <mxCell id="zWdOY6IOPtEDMCCfpQSh-22" value="" style="endArrow=block;html=1;rounded=0;exitX=0.5;exitY=0;exitDx=0;exitDy=0;endFill=0;entryX=0.5;entryY=1;entryDx=0;entryDy=0;" parent="WIyWlLk6GJQsqaUBKTNV-1" source="zWdOY6IOPtEDMCCfpQSh-15" target="zkfFHV4jXpPFQw0GAbJ--17" edge="1">
          <mxGeometry width="50" height="50" relative="1" as="geometry">
            <mxPoint x="400" y="340" as="sourcePoint" />
            <mxPoint x="440" y="380" as="targetPoint" />
            <Array as="points">
              <mxPoint x="420" y="480" />
              <mxPoint x="430" y="480" />
              <mxPoint x="430" y="440" />
            </Array>
          </mxGeometry>
        </mxCell>
        <mxCell id="SyEZ5O2ocyd8BsSJKjrY-54" style="edgeStyle=orthogonalEdgeStyle;rounded=0;orthogonalLoop=1;jettySize=auto;html=1;entryX=1;entryY=0.5;entryDx=0;entryDy=0;" parent="WIyWlLk6GJQsqaUBKTNV-1" source="eayp4S9XgS_MOtDc0waJ-4" target="zkfFHV4jXpPFQw0GAbJ--2" edge="1">
          <mxGeometry relative="1" as="geometry" />
        </mxCell>
        <mxCell id="SyEZ5O2ocyd8BsSJKjrY-56" style="edgeStyle=orthogonalEdgeStyle;rounded=0;orthogonalLoop=1;jettySize=auto;html=1;entryX=0;entryY=0.5;entryDx=0;entryDy=0;" parent="WIyWlLk6GJQsqaUBKTNV-1" source="eayp4S9XgS_MOtDc0waJ-4" target="SyEZ5O2ocyd8BsSJKjrY-34" edge="1">
          <mxGeometry relative="1" as="geometry" />
        </mxCell>
        <mxCell id="eayp4S9XgS_MOtDc0waJ-4" value="ReciboHaberes" style="swimlane;fontStyle=1;align=center;verticalAlign=top;childLayout=stackLayout;horizontal=1;startSize=26;horizontalStack=0;resizeParent=1;resizeLast=0;collapsible=1;marginBottom=0;rounded=0;shadow=0;strokeWidth=1;" parent="WIyWlLk6GJQsqaUBKTNV-1" vertex="1">
          <mxGeometry x="680" y="10" width="210" height="288" as="geometry">
            <mxRectangle x="230" y="140" width="160" height="26" as="alternateBounds" />
          </mxGeometry>
        </mxCell>
        <mxCell id="eayp4S9XgS_MOtDc0waJ-5" value="-nombreEmpleado: String" style="text;align=left;verticalAlign=top;spacingLeft=4;spacingRight=4;overflow=hidden;rotatable=0;points=[[0,0.5],[1,0.5]];portConstraint=eastwest;" parent="eayp4S9XgS_MOtDc0waJ-4" vertex="1">
          <mxGeometry y="26" width="210" height="26" as="geometry" />
        </mxCell>
        <mxCell id="eayp4S9XgS_MOtDc0waJ-6" value="-direccion: String" style="text;align=left;verticalAlign=top;spacingLeft=4;spacingRight=4;overflow=hidden;rotatable=0;points=[[0,0.5],[1,0.5]];portConstraint=eastwest;" parent="eayp4S9XgS_MOtDc0waJ-4" vertex="1">
          <mxGeometry y="52" width="210" height="26" as="geometry" />
        </mxCell>
        <mxCell id="SyEZ5O2ocyd8BsSJKjrY-27" value="-fechaEmision: Date" style="text;align=left;verticalAlign=top;spacingLeft=4;spacingRight=4;overflow=hidden;rotatable=0;points=[[0,0.5],[1,0.5]];portConstraint=eastwest;" parent="eayp4S9XgS_MOtDc0waJ-4" vertex="1">
          <mxGeometry y="78" width="210" height="26" as="geometry" />
        </mxCell>
        <mxCell id="SyEZ5O2ocyd8BsSJKjrY-28" value="-suledoBruto: float" style="text;align=left;verticalAlign=top;spacingLeft=4;spacingRight=4;overflow=hidden;rotatable=0;points=[[0,0.5],[1,0.5]];portConstraint=eastwest;" parent="eayp4S9XgS_MOtDc0waJ-4" vertex="1">
          <mxGeometry y="104" width="210" height="26" as="geometry" />
        </mxCell>
        <mxCell id="SyEZ5O2ocyd8BsSJKjrY-53" value="-suledoNeto: float" style="text;align=left;verticalAlign=top;spacingLeft=4;spacingRight=4;overflow=hidden;rotatable=0;points=[[0,0.5],[1,0.5]];portConstraint=eastwest;" parent="eayp4S9XgS_MOtDc0waJ-4" vertex="1">
          <mxGeometry y="130" width="210" height="26" as="geometry" />
        </mxCell>
        <mxCell id="SyEZ5O2ocyd8BsSJKjrY-29" value="-suledoNeto: float" style="text;align=left;verticalAlign=top;spacingLeft=4;spacingRight=4;overflow=hidden;rotatable=0;points=[[0,0.5],[1,0.5]];portConstraint=eastwest;" parent="eayp4S9XgS_MOtDc0waJ-4" vertex="1">
          <mxGeometry y="156" width="210" height="26" as="geometry" />
        </mxCell>
        <mxCell id="SyEZ5O2ocyd8BsSJKjrY-30" value="-conceptos: List&lt;Concepto&gt;" style="text;align=left;verticalAlign=top;spacingLeft=4;spacingRight=4;overflow=hidden;rotatable=0;points=[[0,0.5],[1,0.5]];portConstraint=eastwest;" parent="eayp4S9XgS_MOtDc0waJ-4" vertex="1">
          <mxGeometry y="182" width="210" height="26" as="geometry" />
        </mxCell>
        <mxCell id="eayp4S9XgS_MOtDc0waJ-7" value="" style="line;html=1;strokeWidth=1;align=left;verticalAlign=middle;spacingTop=-1;spacingLeft=3;spacingRight=3;rotatable=0;labelPosition=right;points=[];portConstraint=eastwest;" parent="eayp4S9XgS_MOtDc0waJ-4" vertex="1">
          <mxGeometry y="208" width="210" height="18" as="geometry" />
        </mxCell>
        <mxCell id="SyEZ5O2ocyd8BsSJKjrY-31" value="+new(Empleado, Date)" style="text;align=left;verticalAlign=top;spacingLeft=4;spacingRight=4;overflow=hidden;rotatable=0;points=[[0,0.5],[1,0.5]];portConstraint=eastwest;fontStyle=4" parent="eayp4S9XgS_MOtDc0waJ-4" vertex="1">
          <mxGeometry y="226" width="210" height="26" as="geometry" />
        </mxCell>
        <mxCell id="eayp4S9XgS_MOtDc0waJ-8" value="+ agregarConcepto(Concepto): void" style="text;strokeColor=none;fillColor=none;align=left;verticalAlign=top;spacingLeft=4;spacingRight=4;overflow=hidden;rotatable=0;points=[[0,0.5],[1,0.5]];portConstraint=eastwest;whiteSpace=wrap;html=1;" parent="eayp4S9XgS_MOtDc0waJ-4" vertex="1">
          <mxGeometry y="252" width="210" height="36" as="geometry" />
        </mxCell>
        <mxCell id="SyEZ5O2ocyd8BsSJKjrY-5" value="" style="endArrow=block;html=1;rounded=0;exitX=0.5;exitY=0;exitDx=0;exitDy=0;entryX=0.25;entryY=1;entryDx=0;entryDy=0;endFill=0;" parent="WIyWlLk6GJQsqaUBKTNV-1" source="zWdOY6IOPtEDMCCfpQSh-3" target="zkfFHV4jXpPFQw0GAbJ--17" edge="1">
          <mxGeometry width="50" height="50" relative="1" as="geometry">
            <mxPoint x="280" y="540" as="sourcePoint" />
            <mxPoint x="320" y="197" as="targetPoint" />
            <Array as="points">
              <mxPoint x="110" y="440" />
              <mxPoint x="375" y="440" />
            </Array>
          </mxGeometry>
        </mxCell>
        <mxCell id="SyEZ5O2ocyd8BsSJKjrY-17" value="EmpleadoContratado" style="swimlane;fontStyle=1;align=center;verticalAlign=top;childLayout=stackLayout;horizontal=1;startSize=30;horizontalStack=0;resizeParent=1;resizeParentMax=0;resizeLast=0;collapsible=1;marginBottom=0;whiteSpace=wrap;html=1;" parent="WIyWlLk6GJQsqaUBKTNV-1" vertex="1">
          <mxGeometry x="600" y="520" width="300" height="168" as="geometry" />
        </mxCell>
        <mxCell id="SyEZ5O2ocyd8BsSJKjrY-18" value="-numeroContrato: String" style="text;strokeColor=none;fillColor=none;align=left;verticalAlign=top;spacingLeft=4;spacingRight=4;overflow=hidden;rotatable=0;points=[[0,0.5],[1,0.5]];portConstraint=eastwest;whiteSpace=wrap;html=1;" parent="SyEZ5O2ocyd8BsSJKjrY-17" vertex="1">
          <mxGeometry y="30" width="300" height="26" as="geometry" />
        </mxCell>
        <mxCell id="SyEZ5O2ocyd8BsSJKjrY-19" value="-medioPago: String" style="text;strokeColor=none;fillColor=none;align=left;verticalAlign=top;spacingLeft=4;spacingRight=4;overflow=hidden;rotatable=0;points=[[0,0.5],[1,0.5]];portConstraint=eastwest;whiteSpace=wrap;html=1;" parent="SyEZ5O2ocyd8BsSJKjrY-17" vertex="1">
          <mxGeometry y="56" width="300" height="26" as="geometry" />
        </mxCell>
        <mxCell id="SyEZ5O2ocyd8BsSJKjrY-20" value="" style="line;strokeWidth=1;fillColor=none;align=left;verticalAlign=middle;spacingTop=-1;spacingLeft=3;spacingRight=3;rotatable=0;labelPosition=right;points=[];portConstraint=eastwest;strokeColor=inherit;" parent="SyEZ5O2ocyd8BsSJKjrY-17" vertex="1">
          <mxGeometry y="82" width="300" height="8" as="geometry" />
        </mxCell>
        <mxCell id="SyEZ5O2ocyd8BsSJKjrY-21" value="+new(String, String, String, Date, float, String, String)" style="text;align=left;verticalAlign=top;spacingLeft=4;spacingRight=4;overflow=hidden;rotatable=0;points=[[0,0.5],[1,0.5]];portConstraint=eastwest;fontStyle=4" parent="SyEZ5O2ocyd8BsSJKjrY-17" vertex="1">
          <mxGeometry y="90" width="300" height="26" as="geometry" />
        </mxCell>
        <mxCell id="SyEZ5O2ocyd8BsSJKjrY-22" value="+calcularSueldoBruto():float" style="text;align=left;verticalAlign=top;spacingLeft=4;spacingRight=4;overflow=hidden;rotatable=0;points=[[0,0.5],[1,0.5]];portConstraint=eastwest;fontStyle=0" parent="SyEZ5O2ocyd8BsSJKjrY-17" vertex="1">
          <mxGeometry y="116" width="300" height="26" as="geometry" />
        </mxCell>
        <mxCell id="SyEZ5O2ocyd8BsSJKjrY-23" value="+calcularRetenciones():float " style="text;align=left;verticalAlign=top;spacingLeft=4;spacingRight=4;overflow=hidden;rotatable=0;points=[[0,0.5],[1,0.5]];portConstraint=eastwest;fontStyle=0" parent="SyEZ5O2ocyd8BsSJKjrY-17" vertex="1">
          <mxGeometry y="142" width="300" height="26" as="geometry" />
        </mxCell>
        <mxCell id="SyEZ5O2ocyd8BsSJKjrY-26" value="" style="endArrow=block;html=1;rounded=0;exitX=0.5;exitY=0;exitDx=0;exitDy=0;endFill=0;entryX=0.75;entryY=1;entryDx=0;entryDy=0;" parent="WIyWlLk6GJQsqaUBKTNV-1" source="SyEZ5O2ocyd8BsSJKjrY-17" target="zkfFHV4jXpPFQw0GAbJ--17" edge="1">
          <mxGeometry width="50" height="50" relative="1" as="geometry">
            <mxPoint x="750" y="520" as="sourcePoint" />
            <mxPoint x="485" y="390" as="targetPoint" />
            <Array as="points">
              <mxPoint x="750" y="440" />
              <mxPoint x="485" y="440" />
            </Array>
          </mxGeometry>
        </mxCell>
        <mxCell id="SyEZ5O2ocyd8BsSJKjrY-32" value="Concepto" style="swimlane;fontStyle=1;align=center;verticalAlign=top;childLayout=stackLayout;horizontal=1;startSize=30;horizontalStack=0;resizeParent=1;resizeParentMax=0;resizeLast=0;collapsible=1;marginBottom=0;whiteSpace=wrap;html=1;" parent="WIyWlLk6GJQsqaUBKTNV-1" vertex="1">
          <mxGeometry x="890" y="320" width="280" height="142" as="geometry" />
        </mxCell>
        <mxCell id="SyEZ5O2ocyd8BsSJKjrY-33" value="-descripcion: String" style="text;strokeColor=none;fillColor=none;align=left;verticalAlign=top;spacingLeft=4;spacingRight=4;overflow=hidden;rotatable=0;points=[[0,0.5],[1,0.5]];portConstraint=eastwest;whiteSpace=wrap;html=1;" parent="SyEZ5O2ocyd8BsSJKjrY-32" vertex="1">
          <mxGeometry y="30" width="280" height="26" as="geometry" />
        </mxCell>
        <mxCell id="SyEZ5O2ocyd8BsSJKjrY-34" value="- monto: float" style="text;strokeColor=none;fillColor=none;align=left;verticalAlign=top;spacingLeft=4;spacingRight=4;overflow=hidden;rotatable=0;points=[[0,0.5],[1,0.5]];portConstraint=eastwest;whiteSpace=wrap;html=1;" parent="SyEZ5O2ocyd8BsSJKjrY-32" vertex="1">
          <mxGeometry y="56" width="280" height="26" as="geometry" />
        </mxCell>
        <mxCell id="SyEZ5O2ocyd8BsSJKjrY-39" value="- tipo: TipoConcepto" style="text;strokeColor=none;fillColor=none;align=left;verticalAlign=top;spacingLeft=4;spacingRight=4;overflow=hidden;rotatable=0;points=[[0,0.5],[1,0.5]];portConstraint=eastwest;whiteSpace=wrap;html=1;" parent="SyEZ5O2ocyd8BsSJKjrY-32" vertex="1">
          <mxGeometry y="82" width="280" height="26" as="geometry" />
        </mxCell>
        <mxCell id="SyEZ5O2ocyd8BsSJKjrY-35" value="" style="line;strokeWidth=1;fillColor=none;align=left;verticalAlign=middle;spacingTop=-1;spacingLeft=3;spacingRight=3;rotatable=0;labelPosition=right;points=[];portConstraint=eastwest;strokeColor=inherit;" parent="SyEZ5O2ocyd8BsSJKjrY-32" vertex="1">
          <mxGeometry y="108" width="280" height="8" as="geometry" />
        </mxCell>
        <mxCell id="SyEZ5O2ocyd8BsSJKjrY-36" value="+new(String, float, TipoConcepto)" style="text;align=left;verticalAlign=top;spacingLeft=4;spacingRight=4;overflow=hidden;rotatable=0;points=[[0,0.5],[1,0.5]];portConstraint=eastwest;fontStyle=4" parent="SyEZ5O2ocyd8BsSJKjrY-32" vertex="1">
          <mxGeometry y="116" width="280" height="26" as="geometry" />
        </mxCell>
        <mxCell id="SyEZ5O2ocyd8BsSJKjrY-40" value="&amp;lt;&amp;lt;enumerativo&amp;gt;&amp;gt;&lt;div&gt;TipoConcepto&lt;/div&gt;" style="swimlane;fontStyle=1;align=center;verticalAlign=top;childLayout=stackLayout;horizontal=1;startSize=40;horizontalStack=0;resizeParent=1;resizeParentMax=0;resizeLast=0;collapsible=1;marginBottom=0;whiteSpace=wrap;html=1;" parent="WIyWlLk6GJQsqaUBKTNV-1" vertex="1">
          <mxGeometry x="930" y="60" width="280" height="100" as="geometry" />
        </mxCell>
        <mxCell id="SyEZ5O2ocyd8BsSJKjrY-41" value="INGRESO" style="text;strokeColor=none;fillColor=none;align=left;verticalAlign=top;spacingLeft=4;spacingRight=4;overflow=hidden;rotatable=0;points=[[0,0.5],[1,0.5]];portConstraint=eastwest;whiteSpace=wrap;html=1;" parent="SyEZ5O2ocyd8BsSJKjrY-40" vertex="1">
          <mxGeometry y="40" width="280" height="26" as="geometry" />
        </mxCell>
        <mxCell id="SyEZ5O2ocyd8BsSJKjrY-42" value="DESCUENTO" style="text;strokeColor=none;fillColor=none;align=left;verticalAlign=top;spacingLeft=4;spacingRight=4;overflow=hidden;rotatable=0;points=[[0,0.5],[1,0.5]];portConstraint=eastwest;whiteSpace=wrap;html=1;" parent="SyEZ5O2ocyd8BsSJKjrY-40" vertex="1">
          <mxGeometry y="66" width="280" height="26" as="geometry" />
        </mxCell>
        <mxCell id="SyEZ5O2ocyd8BsSJKjrY-44" value="" style="line;strokeWidth=1;fillColor=none;align=left;verticalAlign=middle;spacingTop=-1;spacingLeft=3;spacingRight=3;rotatable=0;labelPosition=right;points=[];portConstraint=eastwest;strokeColor=inherit;" parent="SyEZ5O2ocyd8BsSJKjrY-40" vertex="1">
          <mxGeometry y="92" width="280" height="8" as="geometry" />
        </mxCell>
        <mxCell id="SyEZ5O2ocyd8BsSJKjrY-46" value="&amp;lt;&amp;lt;interface&amp;gt;&amp;gt;&lt;div&gt;Liquidable&lt;/div&gt;" style="swimlane;fontStyle=1;align=center;verticalAlign=top;childLayout=stackLayout;horizontal=1;startSize=40;horizontalStack=0;resizeParent=1;resizeParentMax=0;resizeLast=0;collapsible=1;marginBottom=0;whiteSpace=wrap;html=1;" parent="WIyWlLk6GJQsqaUBKTNV-1" vertex="1">
          <mxGeometry x="450" y="-170" width="280" height="126" as="geometry" />
        </mxCell>
        <mxCell id="SyEZ5O2ocyd8BsSJKjrY-49" value="" style="line;strokeWidth=1;fillColor=none;align=left;verticalAlign=middle;spacingTop=-1;spacingLeft=3;spacingRight=3;rotatable=0;labelPosition=right;points=[];portConstraint=eastwest;strokeColor=inherit;" parent="SyEZ5O2ocyd8BsSJKjrY-46" vertex="1">
          <mxGeometry y="40" width="280" height="8" as="geometry" />
        </mxCell>
        <mxCell id="SyEZ5O2ocyd8BsSJKjrY-52" value="+calcularSueldoNeto():float" style="text;align=left;verticalAlign=top;spacingLeft=4;spacingRight=4;overflow=hidden;rotatable=0;points=[[0,0.5],[1,0.5]];portConstraint=eastwest;fontStyle=0" parent="SyEZ5O2ocyd8BsSJKjrY-46" vertex="1">
          <mxGeometry y="48" width="280" height="26" as="geometry" />
        </mxCell>
        <mxCell id="SyEZ5O2ocyd8BsSJKjrY-51" value="+calcularRetenciones():float " style="text;align=left;verticalAlign=top;spacingLeft=4;spacingRight=4;overflow=hidden;rotatable=0;points=[[0,0.5],[1,0.5]];portConstraint=eastwest;fontStyle=0" parent="SyEZ5O2ocyd8BsSJKjrY-46" vertex="1">
          <mxGeometry y="74" width="280" height="26" as="geometry" />
        </mxCell>
        <mxCell id="SyEZ5O2ocyd8BsSJKjrY-50" value="+calcularSueldoBruto():float" style="text;align=left;verticalAlign=top;spacingLeft=4;spacingRight=4;overflow=hidden;rotatable=0;points=[[0,0.5],[1,0.5]];portConstraint=eastwest;fontStyle=0" parent="SyEZ5O2ocyd8BsSJKjrY-46" vertex="1">
          <mxGeometry y="100" width="280" height="26" as="geometry" />
        </mxCell>
        <mxCell id="SyEZ5O2ocyd8BsSJKjrY-63" value="1" style="edgeLabel;html=1;align=center;verticalAlign=middle;resizable=0;points=[];" parent="WIyWlLk6GJQsqaUBKTNV-1" vertex="1" connectable="0">
          <mxGeometry x="780" y="250.00368421052644" as="geometry">
            <mxPoint x="17" y="62" as="offset" />
          </mxGeometry>
        </mxCell>
      </root>
    </mxGraphModel>
  </diagram>
</mxfile>
